<?xml version="1.0" encoding="UTF-8" standalone="no"?>
<!-- Created with Inkscape (http://www.inkscape.org/) -->

<svg
   width="169mm"
   height="31mm"
   viewBox="0 0 169 31"
   version="1.1"
   id="svg5"
   inkscape:version="1.1.2 (0a00cf5339, 2022-02-04)"
   sodipodi:docname="logo.svg"
   xmlns:inkscape="http://www.inkscape.org/namespaces/inkscape"
   xmlns:sodipodi="http://sodipodi.sourceforge.net/DTD/sodipodi-0.dtd"
   xmlns:xlink="http://www.w3.org/1999/xlink"
   xmlns="http://www.w3.org/2000/svg"
   xmlns:svg="http://www.w3.org/2000/svg">
  <sodipodi:namedview
     id="namedview7"
     pagecolor="#ffffff"
     bordercolor="#666666"
     borderopacity="1.0"
     inkscape:pageshadow="2"
     inkscape:pageopacity="0.0"
     inkscape:pagecheckerboard="true"
     inkscape:document-units="mm"
     showgrid="false"
     showguides="true"
     inkscape:guide-bbox="true"
     height="39mm"
     inkscape:zoom="1.4142136"
     inkscape:cx="340.47191"
     inkscape:cy="72.831998"
     inkscape:window-width="1920"
     inkscape:window-height="1016"
     inkscape:window-x="1280"
     inkscape:window-y="399"
     inkscape:window-maximized="1"
     inkscape:current-layer="layer1">
    <sodipodi:guide
       position="43.435842,14.224798"
       orientation="0,-1"
       id="guide165934" />
    <sodipodi:guide
       position="43.725602,28.168066"
       orientation="0,-1"
       id="guide165936" />
  </sodipodi:namedview>
  <defs
     id="defs2">
    <linearGradient
       inkscape:collect="always"
       id="linearGradient141077">
      <stop
         style="stop-color:#2686a8;stop-opacity:1"
         offset="0"
         id="stop141073" />
      <stop
         style="stop-color:#75ab9b;stop-opacity:1"
         offset="1"
         id="stop141075" />
    </linearGradient>
    <linearGradient
       inkscape:collect="always"
       id="linearGradient132171-1-6">
      <stop
         style="stop-color:#91d179;stop-opacity:0.99887758"
         offset="0"
         id="stop132167" />
      <stop
         style="stop-color:#0066ff;stop-opacity:1"
         offset="1"
         id="stop132169" />
    </linearGradient>
    <rect
       x="27.81134"
       y="76.897949"
       width="510.96735"
       height="60.241211"
       id="rect116615" />
    <rect
       x="85.812317"
       y="82.995239"
       width="365.60065"
       height="58.806519"
       id="rect110501" />
    <rect
       x="3.038522"
       y="95.36261"
       width="649.60394"
       height="121.16303"
       id="rect101742" />
    <rect
       x="67.373123"
       y="78.623459"
       width="676.72186"
       height="184.72356"
       id="rect2871" />
    <linearGradient
       inkscape:collect="always"
       xlink:href="#linearGradient132171-1-6"
       id="linearGradient140699"
       x1="29.998045"
       y1="100.77029"
       x2="481.49765"
       y2="100.77029"
       gradientUnits="userSpaceOnUse" />
    <linearGradient
       inkscape:collect="always"
       xlink:href="#linearGradient141077"
       id="linearGradient141657"
       gradientUnits="userSpaceOnUse"
       x1="125.10675"
       y1="98.437439"
       x2="317.98981"
       y2="101.32541"
       gradientTransform="translate(-45.02624,0.58520512)" />
  </defs>
  <g
     inkscape:label="Layer 1"
     inkscape:groupmode="layer"
     id="layer1">
    <path
       id="text2869"
       style="font-style:normal;font-weight:normal;font-size:74.6667px;line-height:1.25;font-family:sans-serif;white-space:pre;shape-inside:url(#rect2871);fill:#75ab9b;fill-opacity:1;stroke:none;stroke-width:0.264583"
       d="m 9.0374238,2.6050089 c -2.0900255,0 -3.7429233,0.6366531 -4.9583535,1.9099609 C 2.8700708,5.7818469 2.2657442,7.5437245 2.2657442,9.8009521 v 0.00982 c 0,2.2636579 0.6043266,4.0317939 1.8133261,5.3051019 1.2089992,1.273308 2.8618971,1.909961 4.9583535,1.909961 1.1832762,0 2.2472352,-0.234381 3.1925702,-0.703833 0.945334,-0.475883 1.688096,-1.12557 2.228287,-1.948718 0.540192,-0.829579 0.829579,-1.759008 0.868164,-2.787944 l 0.0098,-0.105936 h -3.40496 l -0.01964,0.105936 c -0.122187,0.778133 -0.440513,1.392623 -0.954981,1.842782 -0.508037,0.443728 -1.1446897,0.665592 -1.9099608,0.665592 -0.9774888,0 -1.7520605,-0.379591 -2.3244058,-1.138431 C 6.1564048,12.190011 5.8732757,11.138569 5.8732757,9.8009524 v -0.00982 c 0,-1.3247545 0.2831291,-2.3631628 0.8490437,-3.1155719 0.5659146,-0.7588401 1.3376153,-1.138432 2.3151041,-1.138432 0.7909944,0 1.4339055,0.2252517 1.9290815,0.6754111 0.501606,0.4501592 0.810286,1.0482273 0.926041,1.7942057 l 0.01912,0.1446941 h 3.405476 V 8.0548053 C 15.284989,7.2831036 15.107969,6.563022 14.786427,5.8942139 14.471315,5.2189747 14.040621,4.6401992 13.493999,4.1578858 12.953808,3.675572 12.297862,3.2959804 11.526161,3.0194538 10.76089,2.7429274 9.9313117,2.6050089 9.0374238,2.6050089 Z m 77.3725372,0 c -2.090026,0 -3.742923,0.6366531 -4.958353,1.9099609 -1.209,1.2668771 -1.813327,3.0287547 -1.813327,5.2859823 v 0.00982 c 0,2.2636579 0.604327,4.0317939 1.813327,5.3051019 1.208998,1.273308 2.861898,1.909961 4.958353,1.909961 1.183275,0 2.247752,-0.234381 3.193087,-0.703833 0.945335,-0.475883 1.688097,-1.12557 2.228289,-1.948718 0.540181,-0.829579 0.829585,-1.759008 0.868161,-2.787944 l 0.0093,-0.105936 h -3.40496 l -0.01913,0.105936 c -0.122187,0.778133 -0.440512,1.392623 -0.954981,1.842782 -0.508038,0.443728 -1.144691,0.665592 -1.909961,0.665592 -0.97749,0 -1.752577,-0.379591 -2.324923,-1.138431 C 83.528928,12.190012 83.2458,11.13857 83.2458,9.8009537 v -0.00982 c 0,-1.3247545 0.283128,-2.3631628 0.849043,-3.1155719 0.565914,-0.7588401 1.337614,-1.138432 2.315104,-1.138432 0.790996,0 1.433907,0.2252517 1.929082,0.6754111 0.501605,0.4501592 0.810287,1.0482273 0.926042,1.7942057 l 0.01963,0.1446941 h 3.40496 V 8.0548056 C 92.657522,7.2831038 92.4805,6.5630223 92.15896,5.8942141 91.843846,5.218975 91.413152,4.6401995 90.866531,4.157886 90.326339,3.6755723 89.670395,3.2959807 88.898693,3.0194541 88.133422,2.7429277 87.303842,2.6050092 86.409956,2.6050092 Z m 35.373039,0 c -1.56913,0 -2.85547,0.4273063 -3.85868,1.282609 -0.99679,0.8553029 -1.495,1.9646225 -1.495,3.3279622 v 0.086816 h 3.24114 l 0.009,-0.1059366 c 0.0322,-0.5659146 0.23812,-1.0255474 0.61754,-1.379244 0.37942,-0.3601276 0.87764,-0.5405356 1.495,-0.5405356 0.54662,0 0.99035,0.1577279 1.33118,0.4728396 0.34727,0.3151116 0.5209,0.7202542 0.5209,1.2154296 v 0.019121 c 0,0.4565904 -0.13792,0.8940596 -0.41444,1.3120647 -0.2701,0.4115742 -0.82671,0.9903497 -1.66915,1.7363282 l -4.9289,4.331001 v 2.41174 h 10.61072 v -2.720248 h -6.05803 v -0.115755 l 2.72025,-2.315104 c 0.81672,-0.707394 1.43747,-1.295815 1.8619,-1.7652669 0.43087,-0.4758827 0.75545,-0.9581957 0.9741,-1.4469401 0.21865,-0.4951753 0.32815,-1.0387533 0.32815,-1.6303916 v -0.019121 c 0,-1.2347228 -0.4857,-2.2345459 -1.45676,-2.9998169 -0.97107,-0.7717018 -2.24725,-1.1575521 -3.82923,-1.1575521 z m 12.9067,0 c -1.85208,0 -3.31206,0.6429115 -4.37958,1.9290813 -1.06109,1.2861694 -1.59163,3.0417886 -1.59163,5.2668619 v 0.019121 c 0,2.2250739 0.53394,3.9840809 1.60145,5.2766809 1.06752,1.28617 2.52411,1.929081 4.36976,1.929081 1.84565,0 3.29885,-0.642911 4.35994,-1.929081 1.06752,-1.2926 1.60145,-3.051607 1.60145,-5.2766809 v -0.019121 c 0,-2.2250733 -0.53393,-3.9806925 -1.60145,-5.2668619 -1.06109,-1.2861698 -2.51429,-1.9290813 -4.35994,-1.9290813 z m 26.08316,0 c -1.85208,0 -3.31154,0.6429115 -4.37906,1.9290813 -1.06109,1.2861694 -1.59163,3.0417886 -1.59163,5.2668619 v 0.019121 c 0,2.2250739 0.53341,3.9840809 1.60093,5.2766809 1.06752,1.28617 2.52411,1.929081 4.36976,1.929081 1.84566,0 3.29937,-0.642911 4.36046,-1.929081 1.06752,-1.2926 1.60094,-3.051607 1.60094,-5.2766809 v -0.019121 c 0,-2.2250733 -0.53342,-3.9806925 -1.60094,-5.2668619 -1.06109,-1.2861698 -2.5148,-1.9290813 -4.36046,-1.9290813 z M 16.995594,2.8556397 V 16.775203 h 3.539836 v -5.604309 h 5.546948 v 5.604309 h 3.530533 V 2.8556397 H 26.082378 V 8.3250732 H 20.53543 V 2.8556397 Z m 14.72985,0 v 2.6690875 h 3.560506 v 0.0031 h 2.053622 c 0.623792,0 1.125397,0.1765036 1.504818,0.5302001 0.37942,0.3536969 0.568957,0.8234926 0.568957,1.4086996 v 0.019121 c 0,0.5916379 -0.186666,1.060917 -0.559655,1.4081826 -0.372991,0.3472659 -0.871206,0.5208984 -1.494999,0.5208984 h -2.093412 v -0.0031 h -3.539837 v 7.3633741 h 3.539837 v -4.794022 h 1.804024 l 2.392101,4.794021 h 3.974436 L 40.647898,11.450464 C 41.374584,11.135352 41.950487,10.620713 42.374923,9.9068886 42.805789,9.1930645 43.02088,8.3895543 43.02088,7.4956664 V 7.476029 c 0,-1.4790949 -0.456245,-2.6173533 -1.369428,-3.4147786 -0.913172,-0.8038558 -2.212554,-1.205611 -3.897434,-1.205611 z m 28.388966,0 v 0.5725747 l 7.770066,11.2571936 -0.01138,0.0078 1.434023,2.082043 h 2.970877 V 16.122578 L 72.06974,15.820271 h 5.29e-4 L 65.179215,5.8363363 63.114227,2.8556397 Z m 8.633063,0 v 3.5243325 l 3.530534,5.1149328 V 2.8556397 Z m 5.633765,0 V 14.542265 l 0.01035,0.01499 -0.01035,0.0072 v 2.210718 h 3.539837 V 2.8556397 Z m 19.986895,0 V 16.775203 h 9.299177 V 13.929382 H 97.908483 V 2.8556397 Z m 48.819757,0 -0.5979,8.2956173 h 3.06752 c 0.1479,-0.289388 0.36977,-0.536803 0.66559,-0.74259 0.41157,-0.30225 0.90979,-0.4532025 1.495,-0.4532025 0.66237,0 1.20595,0.1991835 1.63039,0.5978965 0.42444,0.398712 0.63665,0.916223 0.63665,1.552877 v 0.01964 c 0,0.643085 -0.21221,1.166854 -0.63665,1.571997 -0.418,0.405143 -0.96158,0.607715 -1.63039,0.607715 -0.56592,0 -1.05162,-0.144694 -1.45676,-0.434082 -0.39871,-0.295819 -0.65577,-0.668636 -0.77153,-1.118795 l -0.0191,-0.0677 h -3.21221 l 0.009,0.164331 c 0.0772,1.208999 0.60771,2.208823 1.59163,2.999817 0.99035,0.784563 2.27669,1.176672 3.85868,1.176672 1.66559,0 3.01607,-0.456245 4.05143,-1.369425 1.03537,-0.913181 1.55288,-2.112704 1.55288,-3.59823 v -0.01912 c 0,-1.299031 -0.42731,-2.3697655 -1.28261,-3.2122065 -0.84887,-0.848872 -1.92926,-1.2733073 -3.24114,-1.2733073 -0.71383,0 -1.34422,0.1379185 -1.89085,0.4144449 -0.54662,0.2765266 -0.96141,0.6527305 -1.24436,1.1286133 h -0.0677 l 0.28009,-3.5207152 h 6.57841 V 2.8556389 Z m -8.49819,2.5176757 c 0.76527,0 1.3537,0.3858504 1.76527,1.1575521 0.41157,0.7652708 0.61702,1.855298 0.61702,3.2700846 v 0.019121 c 0,1.4147869 -0.20545,2.5082019 -0.61702,3.2799039 -0.41157,0.771702 -1,1.157552 -1.76527,1.157552 -0.76527,0 -1.35708,-0.38585 -1.77508,-1.157552 -0.41158,-0.771702 -0.61754,-1.865117 -0.61754,-3.2799039 v -0.019121 c 0,-1.4147866 0.20596,-2.5048138 0.61754,-3.2700846 0.418,-0.7717017 1.00981,-1.1575521 1.77508,-1.1575521 z m 26.08316,0 c 0.76527,0 1.3537,0.3858504 1.76527,1.1575521 0.41157,0.7652708 0.61753,1.855298 0.61753,3.2700846 v 0.019121 c 0,1.4147869 -0.20596,2.5082019 -0.61753,3.2799039 -0.41157,0.771702 -1,1.157552 -1.76527,1.157552 -0.76527,0 -1.35656,-0.38585 -1.77457,-1.157552 -0.41157,-0.771702 -0.61753,-1.865117 -0.61753,-3.2799039 v -0.019121 c 0,-1.4147866 0.20596,-2.5048138 0.61753,-3.2700846 0.41801,-0.7717017 1.0093,-1.1575521 1.77457,-1.1575521 z M 60.11441,8.0537718 v 8.7214312 h 3.530531 v -3.605981 z" />
    <rect
       id="rect28757"
       width="9.7541046"
       height="2.769834"
       x="105.27535"
       y="2.831934"
       style="fill:#75ab9b;fill-opacity:1;stroke-width:0.0762801" />
    <rect
       id="rect28757-1"
       width="9.7541046"
       height="2.769834"
       x="105.30335"
       y="8.3799486"
       style="fill:#75ab9b;fill-opacity:1;stroke-width:0.0762801" />
    <rect
       id="rect28757-1-3"
       width="9.7541046"
       height="2.769834"
       x="105.28178"
       y="14.005368"
       style="fill:#75ab9b;fill-opacity:1;stroke-width:0.0762801" />
    <path
       id="path31384"
       style="color:#000000;fill:#3b7368;fill-opacity:1;stroke-width:0.999995;-inkscape-stroke:none"
       d="m 51.274689,2.7257449 c -3.930944,0 -7.164638,3.1247243 -7.164638,6.9822614 0,3.8575397 3.233694,6.9822617 7.164638,6.9822617 0.0067,0 0.01315,-5.18e-4 0.0198,-5.18e-4 v -2.074129 c -0.0066,2.6e-5 -0.01315,5.17e-4 -0.0198,5.17e-4 -2.830607,0 -5.079245,-2.19938 -5.079245,-4.9081317 0,-2.7087528 2.248638,-4.9061132 5.079245,-4.9061132 1.326318,0 2.524318,0.4824161 3.423209,1.2738638 h 2.690863 C 56.125152,4.0665081 53.849602,2.7257449 51.274689,2.7257449 Z"
       sodipodi:nodetypes="sssccsssccs" />
    <path
       sodipodi:type="star"
       style="fill:#3b7368;fill-opacity:1;stroke:none;stroke-width:8.8227;stroke-opacity:1"
       id="path35864"
       inkscape:flatsided="false"
       sodipodi:sides="3"
       sodipodi:cx="249.424"
       sodipodi:cy="234.85017"
       sodipodi:r1="17.233107"
       sodipodi:r2="8.6165533"
       sodipodi:arg1="0.45243409"
       sodipodi:arg2="1.4996316"
       inkscape:rounded="0"
       inkscape:randomized="0"
       d="m 264.92321,242.38373 -14.88654,1.06119 -14.88653,1.06119 6.52425,-13.42271 6.52425,-13.42271 8.36228,12.36152 z"
       transform="matrix(0.18777391,0.05332954,-0.05562363,0.18002955,22.258647,-49.589741)"
       inkscape:transform-center-x="0.36302636"
       inkscape:transform-center-y="-0.48856656" />
    <rect
       style="fill:#3b7368;fill-opacity:1;stroke:none;stroke-width:2.20946;stroke-opacity:1"
       id="rect47919"
       width="1.512585"
       height="5.2772346"
       x="50.229706"
       y="5.9437685" />
    <rect
       style="fill:#3b7368;fill-opacity:1;stroke:none;stroke-width:1.9839;stroke-opacity:1"
       id="rect47919-0"
       width="1.5936048"
       height="4.0384116"
       x="9.6273975"
       y="-54.268116"
       transform="rotate(90)" />
    <path
       id="rect106323"
       style="fill:#3b7368;fill-opacity:1;stroke-width:1.15332e-05"
       d="m 54.218734,13.888925 1.446737,1.701739 -2.113477,1.099086 -0.473368,-2.23004 z"
       sodipodi:nodetypes="ccccc" />
    <path
       id="rect106323-5"
       style="fill:#3b7368;fill-opacity:1;stroke-width:1.15332e-05"
       d="m 55.794607,12.000433 2.202568,0.566649 -1.109054,2.155383 -1.704803,-1.577717 z"
       sodipodi:nodetypes="ccccc" />
    <path
       id="rect106323-5-4"
       style="fill:#3b7368;fill-opacity:1;stroke-width:1.15332e-05"
       d="m 56.409596,9.373829 2.227583,-0.458526 -0.04946,2.423475 -2.224579,-0.668421 z"
       sodipodi:nodetypes="ccccc" />
    <text
       xml:space="preserve"
       transform="scale(0.26458333)"
       id="text110499"
       style="font-style:normal;font-weight:normal;font-size:40px;line-height:1.25;font-family:sans-serif;white-space:pre;shape-inside:url(#rect110501);fill:#000000;fill-opacity:1;stroke:none" />
    <text
       xml:space="preserve"
       transform="matrix(0.26458333,0,0,0.26458333,29.756628,-0.87420379)"
       id="text116613"
       style="font-style:normal;font-weight:normal;font-size:29.3333px;line-height:1.25;font-family:sans-serif;white-space:pre;shape-inside:url(#rect116615);mix-blend-mode:multiply;fill:url(#linearGradient141657);fill-opacity:1;stroke:none;stroke-opacity:1"><tspan
         x="27.810547"
         y="103.96933"
         id="tspan170351"><tspan
           style="font-weight:600;font-family:'SF Pro Display';-inkscape-font-specification:'SF Pro Display Semi-Bold'"
           id="tspan170349">Discover The Future Today.</tspan></tspan></text>
  </g>
</svg>
